<?xml version="1.0" encoding="UTF-8"?> <svg xmlns="http://www.w3.org/2000/svg" xmlns:xlink="http://www.w3.org/1999/xlink" xmlns:svgjs="http://svgjs.dev/svgjs" width="2000" height="1247" viewBox="0 0 2000 1247"> <g transform="matrix(1,0,0,1,-1.2121212121212466,0.504858299595071)"> <svg xmlns="http://www.w3.org/2000/svg" xmlns:xlink="http://www.w3.org/1999/xlink" viewBox="0 0 396 247" data-background-color="#ffffff" preserveAspectRatio="xMidYMid meet" height="1247" width="2000"> <g id="tight-bounds" transform="matrix(1,0,0,1,0.2400000000000091,-0.09999999999999432)"> <svg viewBox="0 0 395.52 247.2" height="247.2" width="395.52"> <g> <svg></svg> </g> <g> <svg viewBox="0 0 395.52 247.2" height="247.2" width="395.52"> <g transform="matrix(1,0,0,1,75.54432,110.17840464007065)"> <svg viewBox="0 0 244.43135999999998 26.843190719858676" height="26.843190719858676" width="244.43135999999998"> <g> <svg viewBox="0 0 244.43135999999998 26.843190719858676" height="26.843190719858676" width="244.43135999999998"> <g> <svg viewBox="0 0 244.43135999999998 26.843190719858676" height="26.843190719858676" width="244.43135999999998"> <g> <svg viewBox="0 0 244.43135999999998 26.843190719858676" height="26.843190719858676" width="244.43135999999998"> <g id="textblocktransform"> <svg viewBox="0 0 244.43135999999998 26.843190719858676" height="26.843190719858676" width="244.43135999999998" id="textblock"> <g> <svg viewBox="0 0 244.43135999999998 26.843190719858676" height="26.843190719858676" width="244.43135999999998"> <g transform="matrix(1,0,0,1,0,0)"> <svg width="244.43135999999998" viewBox="1.15 -36.6 339.61 37.300000000000004" height="26.843190719858676" data-palette-color="#4a596d"> <path d="M13.65 0L1.15 0 1.15-1.05 2.15-1.35Q3.15-1.7 3.48-2.27 3.8-2.85 3.8-3.9L3.8-3.9 3.8-29.15Q3.8-30.2 3.48-30.78 3.15-31.35 2.15-31.7L2.15-31.7 1.15-32 1.15-33.05 13.65-33.05 13.65-32 12.65-31.7Q11.7-31.35 11.35-30.78 11-30.2 11-29.15L11-29.15 11-3.9Q11-2.85 11.35-2.27 11.7-1.7 12.65-1.35L12.65-1.35 13.65-1.05 13.65 0ZM28.35 0L15.85 0 15.85-0.95 16.6-1.2Q17.6-1.45 17.97-2.05 18.35-2.65 18.35-3.65L18.35-3.65 18.35-18.3Q18.3-19.4 17.95-19.98 17.6-20.55 16.6-20.75L16.6-20.75 15.85-20.95 15.85-21.85 24-24.75 24.6-24.2 25.05-19.8 25.05-19.45Q25.8-20.85 26.95-22.05 28.1-23.25 29.45-24 30.8-24.75 32.15-24.75L32.15-24.75Q34.05-24.75 35-23.75 35.95-22.75 35.95-21.2L35.95-21.2Q35.95-19.5 35-18.63 34.05-17.75 32.7-17.75L32.7-17.75Q30.7-17.75 29.25-19.55L29.25-19.55 29.15-19.65Q28.65-20.25 28.02-20.33 27.4-20.4 26.8-19.7L26.8-19.7Q26.3-19.2 25.87-18.53 25.45-17.85 25.1-16.95L25.1-16.95 25.1-3.85Q25.1-2.9 25.5-2.27 25.9-1.65 26.85-1.4L26.85-1.4 28.35-0.95 28.35 0ZM43.4-27.5L43.4-27.5Q41.75-27.5 40.59-28.55 39.45-29.6 39.45-31.2L39.45-31.2Q39.45-32.85 40.59-33.88 41.75-34.9 43.4-34.9L43.4-34.9Q45.05-34.9 46.2-33.88 47.34-32.85 47.34-31.2L47.34-31.2Q47.34-29.6 46.2-28.55 45.05-27.5 43.4-27.5ZM49.09 0L37.65 0 37.65-0.95 38.4-1.15Q39.4-1.45 39.75-2.05 40.09-2.65 40.15-3.65L40.15-3.65 40.15-12.85Q40.15-14.4 40.15-15.73 40.15-17.05 40.09-18.45L40.09-18.45Q40.09-19.45 39.72-20.03 39.34-20.6 38.34-20.8L38.34-20.8 37.65-20.95 37.65-21.85 46.4-24.75 47-24.2 46.84-17.1 46.84-3.6Q46.84-2.6 47.22-2 47.59-1.4 48.55-1.1L48.55-1.1 49.09-0.95 49.09 0ZM62.74 0L51.29 0 51.29-0.95 52.09-1.15Q53.74-1.65 53.74-3.6L53.74-3.6 53.74-18.35Q53.69-19.4 53.39-19.98 53.09-20.55 52.09-20.75L52.09-20.75 51.29-20.95 51.29-21.85 59.39-24.75 59.99-24.2 60.34-21.1Q62.14-22.7 64.37-23.73 66.59-24.75 68.74-24.75L68.74-24.75Q72.04-24.75 73.82-22.95 75.59-21.15 75.59-17.45L75.59-17.45 75.59-3.55Q75.59-1.6 77.39-1.1L77.39-1.1 77.94-0.95 77.94 0 66.44 0 66.44-0.95 67.19-1.15Q68.84-1.7 68.84-3.6L68.84-3.6 68.84-18.45Q68.84-20.2 68.09-21 67.34-21.8 65.59-21.8L65.59-21.8Q63.14-21.8 60.49-19.65L60.49-19.65 60.49-3.55Q60.49-1.6 62.24-1.1L62.24-1.1 62.74-0.95 62.74 0ZM87.24 0.7L87.24 0.7Q84.39 0.7 82.42-0.93 80.44-2.55 80.44-5.6L80.44-5.6Q80.44-8 82.77-10.03 85.09-12.05 90.09-13L90.09-13Q90.94-13.2 92.07-13.38 93.19-13.55 94.29-13.75L94.29-13.75 94.29-17.3Q94.29-20.7 93.44-22 92.59-23.3 90.74-23.3L90.74-23.3 90.59-23.3Q89.44-23.3 88.77-22.58 88.09-21.85 87.89-20.2L87.89-20.2 87.74-19.55Q87.59-17.55 86.69-16.63 85.79-15.7 84.44-15.7L84.44-15.7Q83.19-15.7 82.37-16.48 81.54-17.25 81.54-18.5L81.54-18.5Q81.54-20.55 82.94-21.95 84.34-23.35 86.67-24.05 88.99-24.75 91.69-24.75L91.69-24.75Q96.14-24.75 98.49-22.6 100.84-20.45 100.84-15.6L100.84-15.6 100.84-4.45Q100.84-2.3 102.89-2.3L102.89-2.3 104.04-2.3 104.54-1.75Q103.64-0.6 102.54 0.03 101.44 0.65 99.54 0.65L99.54 0.65Q97.39 0.65 96.12-0.38 94.84-1.4 94.44-3.1L94.44-3.1Q92.84-1.4 91.29-0.35 89.74 0.7 87.24 0.7ZM90.14-2.5L90.14-2.5Q91.14-2.5 92.04-2.95 92.94-3.4 94.29-4.45L94.29-4.45 94.29-12.45Q92.99-12.25 91.64-11.95L91.64-11.95Q89.49-11.45 88.17-10.1 86.84-8.75 86.84-6.45L86.84-6.45Q86.84-4.45 87.77-3.48 88.69-2.5 90.14-2.5ZM110.79-20.3L109.44-20.3 108.49-23.9Q108.19-25.35 107.74-27.13 107.29-28.9 106.96-30.48 106.64-32.05 106.64-32.9L106.64-32.9Q106.64-34.65 107.59-35.63 108.54-36.6 110.09-36.6L110.09-36.6Q111.59-36.6 112.56-35.63 113.54-34.65 113.54-32.9L113.54-32.9Q113.54-32.05 113.21-30.48 112.89-28.9 112.46-27.13 112.04-25.35 111.74-23.9L111.74-23.9 110.79-20.3ZM125.24 0.7L125.24 0.7Q122.84 0.7 120.91 0.18 118.99-0.35 117.24-1.3L117.24-1.3 117.24-7.2 118.59-7.2 120.09-4.35Q121.04-2.5 122.26-1.6 123.49-0.7 125.39-0.7L125.39-0.7Q127.74-0.7 129.14-1.73 130.54-2.75 130.54-4.5L130.54-4.5Q130.54-6.1 129.49-7.1 128.44-8.1 125.74-8.95L125.74-8.95 123.54-9.65Q120.59-10.55 118.86-12.38 117.14-14.2 117.14-16.95L117.14-16.95Q117.14-19.1 118.29-20.88 119.44-22.65 121.64-23.7 123.84-24.75 126.99-24.75L126.99-24.75Q129.04-24.75 130.76-24.28 132.49-23.8 134.14-22.95L134.14-22.95 133.84-17.6 132.54-17.6 130.99-20.45Q130.19-22.05 129.36-22.68 128.54-23.3 126.84-23.3L126.84-23.3Q125.04-23.3 123.66-22.38 122.29-21.45 122.29-19.8L122.29-19.8Q122.29-18.25 123.44-17.28 124.59-16.3 127.14-15.45L127.14-15.45 129.29-14.8Q132.94-13.65 134.49-11.75 136.04-9.85 136.04-7.2L136.04-7.2Q136.04-3.65 133.21-1.48 130.39 0.7 125.24 0.7ZM162.63 0L149.43 0 149.43-1.05 150.43-1.3Q151.43-1.6 151.73-2.2 152.03-2.8 152.03-3.85L152.03-3.85Q152.08-6.7 152.08-9.63 152.08-12.55 152.08-15.5L152.08-15.5 152.08-17.55Q152.08-20.45 152.08-23.35 152.08-26.25 152.03-29.15L152.03-29.15Q152.03-30.2 151.71-30.78 151.38-31.35 150.38-31.7L150.38-31.7 149.43-32 149.43-33.05 161.48-33.05Q168.78-33.05 172.11-30.33 175.43-27.6 175.43-23.15L175.43-23.15Q175.43-20.35 174.06-17.98 172.68-15.6 169.53-14.2 166.38-12.8 161.03-12.8L161.03-12.8 159.23-12.8Q159.23-10.7 159.23-8.47 159.23-6.25 159.28-3.95L159.28-3.95Q159.28-1.9 161.13-1.45L161.13-1.45 162.63-1.05 162.63 0ZM159.23-17.55L159.23-14.25 161.33-14.25Q163.83-14.25 165.41-15.03 166.98-15.8 167.76-17.7 168.53-19.6 168.53-22.95L168.53-22.95Q168.53-26.3 167.71-28.18 166.88-30.05 165.23-30.83 163.58-31.6 161.13-31.6L161.13-31.6 159.28-31.6Q159.23-28.15 159.23-24.63 159.23-21.1 159.23-17.55L159.23-17.55ZM189.88 0.7L189.88 0.7Q186.18 0.7 183.4-0.85 180.63-2.4 179.1-5.25 177.58-8.1 177.58-12.05L177.58-12.05Q177.58-16 179.2-18.85 180.83-21.7 183.6-23.23 186.38-24.75 189.88-24.75L189.88-24.75Q193.38-24.75 196.15-23.23 198.93-21.7 200.55-18.88 202.18-16.05 202.18-12.05L202.18-12.05Q202.18-8.1 200.65-5.23 199.13-2.35 196.38-0.83 193.63 0.7 189.88 0.7ZM189.88-0.7L189.88-0.7Q191.68-0.7 192.8-1.68 193.93-2.65 194.43-5.1 194.93-7.55 194.93-11.95L194.93-11.95Q194.93-16.4 194.43-18.88 193.93-21.35 192.8-22.33 191.68-23.3 189.88-23.3L189.88-23.3Q188.08-23.3 186.98-22.33 185.88-21.35 185.35-18.88 184.83-16.4 184.83-11.95L184.83-11.95Q184.83-7.55 185.35-5.1 185.88-2.65 186.98-1.68 188.08-0.7 189.88-0.7ZM216.98 0L204.48 0 204.48-0.95 205.23-1.2Q206.23-1.45 206.6-2.05 206.98-2.65 206.98-3.65L206.98-3.65 206.98-18.3Q206.93-19.4 206.58-19.98 206.23-20.55 205.23-20.75L205.23-20.75 204.48-20.95 204.48-21.85 212.63-24.75 213.23-24.2 213.68-19.8 213.68-19.45Q214.43-20.85 215.58-22.05 216.73-23.25 218.08-24 219.43-24.75 220.78-24.75L220.78-24.75Q222.68-24.75 223.63-23.75 224.58-22.75 224.58-21.2L224.58-21.2Q224.58-19.5 223.63-18.63 222.68-17.75 221.33-17.75L221.33-17.75Q219.33-17.75 217.88-19.55L217.88-19.55 217.78-19.65Q217.28-20.25 216.65-20.33 216.03-20.4 215.43-19.7L215.43-19.7Q214.93-19.2 214.5-18.53 214.08-17.85 213.73-16.95L213.73-16.95 213.73-3.85Q213.73-2.9 214.13-2.27 214.53-1.65 215.48-1.4L215.48-1.4 216.98-0.95 216.98 0ZM235.62 0.7L235.62 0.7Q232.52 0.7 230.75-0.83 228.97-2.35 228.97-5.8L228.97-5.8Q228.97-7 229-8.08 229.02-9.15 229.02-10.6L229.02-10.6 229.02-22.45 225.47-22.45 225.47-23.55 226.82-23.75Q228.27-24 229.3-24.65 230.32-25.3 231.17-26.45L231.17-26.45 234.42-30.95 235.92-30.95 235.77-24 241.47-24 241.47-22.45 235.72-22.45 235.72-5.4Q235.72-3.6 236.5-2.7 237.27-1.8 238.42-1.8L238.42-1.8Q239.42-1.8 240.22-2.27 241.02-2.75 241.82-3.55L241.82-3.55 242.47-2.8Q241.52-1.15 239.82-0.23 238.12 0.7 235.62 0.7ZM257.07 0L244.17 0 244.17-0.95 244.92-1.15Q246.92-1.7 246.97-3.6L246.97-3.6Q246.97-5.35 247-7.08 247.02-8.8 247.02-10.5L247.02-10.5 247.02-22.45 244.17-22.45 244.17-23.55 245.27-23.75Q246.27-23.9 246.72-24.48 247.17-25.05 247.37-26.1L247.37-26.1Q247.92-28.1 248.85-29.58 249.77-31.05 251.07-32.3L251.07-32.3Q252.92-34.1 255.02-34.8 257.12-35.5 259.12-35.5L259.12-35.5Q261.07-35.5 262.7-34.73 264.32-33.95 264.32-32.1L264.32-32.1Q264.32-30.8 263.55-30.03 262.77-29.25 261.32-29.25L261.32-29.25Q259.02-29.25 257.27-31.95L257.27-31.95 256.67-32.65Q256.07-33.4 255.47-33.25 254.87-33.1 254.62-32.25L254.62-32.25Q254.22-30.65 254-28.5 253.77-26.35 253.72-24L253.72-24 259.47-24 259.47-22.45 253.72-22.45 253.72-10.5Q253.72-8.8 253.75-7.13 253.77-5.45 253.77-3.75L253.77-3.75Q253.77-1.75 255.77-1.3L255.77-1.3 257.07-0.95 257.07 0ZM273.67 0.7L273.67 0.7Q269.97 0.7 267.19-0.85 264.42-2.4 262.89-5.25 261.37-8.1 261.37-12.05L261.37-12.05Q261.37-16 262.99-18.85 264.62-21.7 267.39-23.23 270.17-24.75 273.67-24.75L273.67-24.75Q277.17-24.75 279.94-23.23 282.72-21.7 284.34-18.88 285.97-16.05 285.97-12.05L285.97-12.05Q285.97-8.1 284.44-5.23 282.92-2.35 280.17-0.83 277.42 0.7 273.67 0.7ZM273.67-0.7L273.67-0.7Q275.47-0.7 276.59-1.68 277.72-2.65 278.22-5.1 278.72-7.55 278.72-11.95L278.72-11.95Q278.72-16.4 278.22-18.88 277.72-21.35 276.59-22.33 275.47-23.3 273.67-23.3L273.67-23.3Q271.87-23.3 270.77-22.33 269.67-21.35 269.14-18.88 268.62-16.4 268.62-11.95L268.62-11.95Q268.62-7.55 269.14-5.1 269.67-2.65 270.77-1.68 271.87-0.7 273.67-0.7ZM300.02 0L288.37 0 288.37-0.95 289.12-1.15Q290.77-1.7 290.77-3.65L290.77-3.65Q290.77-5.35 290.79-7.08 290.82-8.8 290.82-10.5L290.82-10.5 290.82-29.5Q290.82-30.55 290.47-31.08 290.12-31.6 289.12-31.85L289.12-31.85 288.37-32.05 288.37-33 297.12-35.1 297.77-34.65 297.57-27.6 297.57-3.65Q297.62-2.65 297.99-2.02 298.37-1.4 299.32-1.15L299.32-1.15 300.02-0.95 300.02 0ZM308.06-27.5L308.06-27.5Q306.41-27.5 305.26-28.55 304.11-29.6 304.11-31.2L304.11-31.2Q304.11-32.85 305.26-33.88 306.41-34.9 308.06-34.9L308.06-34.9Q309.71-34.9 310.86-33.88 312.01-32.85 312.01-31.2L312.01-31.2Q312.01-29.6 310.86-28.55 309.71-27.5 308.06-27.5ZM313.76 0L302.31 0 302.31-0.95 303.06-1.15Q304.06-1.45 304.41-2.05 304.76-2.65 304.81-3.65L304.81-3.65 304.81-12.85Q304.81-14.4 304.81-15.73 304.81-17.05 304.76-18.45L304.76-18.45Q304.76-19.45 304.39-20.03 304.01-20.6 303.01-20.8L303.01-20.8 302.31-20.95 302.31-21.85 311.06-24.75 311.66-24.2 311.51-17.1 311.51-3.6Q311.51-2.6 311.89-2 312.26-1.4 313.21-1.1L313.21-1.1 313.76-0.95 313.76 0ZM328.46 0.7L328.46 0.7Q324.76 0.7 321.99-0.85 319.21-2.4 317.69-5.25 316.16-8.1 316.16-12.05L316.16-12.05Q316.16-16 317.79-18.85 319.41-21.7 322.19-23.23 324.96-24.75 328.46-24.75L328.46-24.75Q331.96-24.75 334.74-23.23 337.51-21.7 339.14-18.88 340.76-16.05 340.76-12.05L340.76-12.05Q340.76-8.1 339.24-5.23 337.71-2.35 334.96-0.83 332.21 0.7 328.46 0.7ZM328.46-0.7L328.46-0.7Q330.26-0.7 331.39-1.68 332.51-2.65 333.01-5.1 333.51-7.55 333.51-11.95L333.51-11.95Q333.51-16.4 333.01-18.88 332.51-21.35 331.39-22.33 330.26-23.3 328.46-23.3L328.46-23.3Q326.66-23.3 325.56-22.33 324.46-21.35 323.94-18.88 323.41-16.4 323.41-11.95L323.41-11.95Q323.41-7.55 323.94-5.1 324.46-2.65 325.56-1.68 326.66-0.7 328.46-0.7Z" opacity="1" transform="matrix(1,0,0,1,0,0)" fill="#000000" class="wordmark-text-0" data-fill-palette-color="primary" id="text-0"></path> </svg> </g> </svg> </g> </svg> </g> </svg> </g> </svg> </g> </svg> </g> </svg> </g> <path d="M222.282 104.178L222.282 39.476 390.53 39.476 390.53 207.724 222.282 207.724 222.282 143.022 224.702 143.022 224.702 205.304 388.11 205.304 388.11 41.896 224.702 41.896 224.702 104.178Z" fill="#000000" stroke="transparent" data-fill-palette-color="tertiary"></path> </svg> </g> <defs></defs> </svg> <rect width="395.52" height="247.2" fill="none" stroke="none" visibility="hidden"></rect> </g> </svg> </g> </svg> 